<?xml version="1.0" encoding="UTF-8"?>
<svg width="16px" height="16px" viewBox="0 0 16 16" version="1.1" xmlns="http://www.w3.org/2000/svg" xmlns:xlink="http://www.w3.org/1999/xlink">
    <title>本校教师</title>
    <g id="页面-1" stroke="none" stroke-width="1" >
        <g id="icon" transform="translate(-53.000000, -310.000000)"  fill-rule="nonzero">
            <g id="教师" transform="translate(53.000000, 310.000000)">
                <rect id="矩形" opacity="0" x="0" y="0" width="16" height="16"></rect>
                <path d="M4.86395001,8.4509974 L7.5964502,14 L3.97588745,14 C3.56095223,13.9843886 3.21517289,13.8343452 2.93854941,13.5490026 C2.66192594,13.26366 2.51602392,12.9089332 2.5,12.4822203 L2.5,9.9687771 C2.51518056,9.54206418 2.66108257,9.18647008 2.93854941,8.9019948 C3.21601625,8.61751951 3.56095223,8.46747615 3.97588745,8.4509974 L4.86395001,8.4509974 Z M6.03369624,2.83000867 C6.54477498,2.30008673 7.1882619,2.02341717 7.96500038,2 C8.74173886,2.02341717 9.38522579,2.30008673 9.89630453,2.83000867 C10.4073833,3.35993062 10.6747297,4.01994796 10.6975006,4.81006071 C10.6899103,5.32437121 10.5667791,5.79444926 10.328107,6.22116219 C10.0894349,6.64787511 9.7554627,6.98785776 9.32534693,7.24111015 C8.89438779,7.49436253 8.44150119,7.62098873 7.96500038,7.62098873 C7.48849958,7.62098873 7.03476961,7.49436253 6.60465384,7.24111015 C6.1736947,6.98785776 5.83972246,6.64787511 5.60189374,6.22116219 C5.36322165,5.79444926 5.24009047,5.32437121 5.23250019,4.81006071 C5.25527103,4.01994796 5.5226175,3.35993062 6.03369624,2.83000867 Z M9.22245649,10.0520382 L7.96584375,12.7797051 L6.70923101,10.0520382 L7.96584375,8.91413703 L9.22245649,10.0520382 Z M13.0041018,8.90112749 C13.2883156,9.18560278 13.453615,9.54119688 13.5,9.9679098 L13.5,12.481353 C13.4924097,12.9080659 13.3481944,13.26366 13.0673541,13.5481353 C12.7865138,13.8326106 12.4390478,13.9826539 12.0241126,13.9991327 L8.4035498,13.9991327 L11.0668941,8.4501301 L11.9549567,8.4501301 C12.3698919,8.46660885 12.7198881,8.61665221 13.0041018,8.90112749 Z" id="形状"></path>
            </g>
        </g>
    </g>
</svg>