<?xml version="1.0" encoding="UTF-8"?>
<svg width="16px" height="16px" viewBox="0 0 16 16" version="1.1" xmlns="http://www.w3.org/2000/svg" xmlns:xlink="http://www.w3.org/1999/xlink">
    <title>本校学生</title>
    <g id="页面-1" stroke="none" stroke-width="1" >
        <g id="icon" transform="translate(-53.000000, -350.000000)"  fill-rule="nonzero">
            <g id="icon/2.常用/任务发布" transform="translate(53.000000, 350.000000)">
                <g id="学生" transform="translate(2.000000, 2.500000)">
                    <rect id="矩形" opacity="0" x="4.97223397e-09" y="0" width="10.9116488" height="11"></rect>
                    <path d="M11.9263438,5.09145152 L11.6984084,4.82791233 C11.6582901,4.78151561 11.6361812,4.72205135 11.6361649,4.6605022 L11.6361649,2.84220734 C11.9341865,2.655722 12.4038755,2.50249278 11.3345332,2.03703239 C10.1092088,1.53241761 7.95620817,0.689970682 6.87167844,0.243585504 C6.86644999,0.241452095 6.77669495,0.201670229 6.77208894,0.1996623 C5.960061,-0.141934676 5.60315711,0.00414132813 4.94611534,0.269437438 C3.83195773,0.690598154 1.98332752,1.4616385 0.71169401,1.9441662 C-0.264158662,2.30897973 -0.20490291,2.58168003 0.696257629,3.01175088 C2.04532198,3.65629242 4.63352877,4.64644678 5.20579498,4.86104298 C5.77806118,5.07563917 6.19098417,5.07701961 6.76785638,4.81774726 C7.31808841,4.57052241 8.2311997,4.25728726 10.5442905,3.30227146 C10.6222477,3.27012179 10.7109673,3.27921879 10.7809069,3.32653329 C10.8508465,3.37384778 10.8928211,3.45316607 10.8928537,3.53807628 L10.8928537,4.64443886 C10.8928528,4.70725019 10.8698452,4.76784931 10.8282451,4.81460988 L10.5751632,5.10023616 C10.483758,5.2029992 10.4901043,5.36043886 10.5894792,5.45538658 L11.0482134,5.89286163 C11.1425848,5.98303248 11.2894124,5.98634344 11.3876891,5.90051681 L11.901322,5.45162173 C11.9521169,5.40726745 11.9833063,5.34435247 11.9880012,5.27677305 C11.9926961,5.20919362 11.9705102,5.14251026 11.9263438,5.09145152 L11.9263438,5.09145152 Z" id="路径"></path>
                    <path d="M10.0274209,5.31621279 C9.02617293,5.70687826 7.51901023,6.29720603 6.90006145,6.51933191 C6.05180783,6.82365692 5.81839492,6.71347244 5.12873759,6.50364506 C4.17529256,6.21350097 2.78103947,5.61953385 1.9702564,5.33566449 C1.89463888,5.30927583 1.81102968,5.32139387 1.74584951,5.36818928 C1.68066934,5.41498469 1.64198368,5.49067572 1.64198368,5.57134382 L1.64198368,9.538236 C1.64176448,9.6252843 1.68658982,9.70614754 1.76024702,9.75157725 C2.21586901,10.0328112 3.94038581,11 6.10882283,11 C8.12190022,11 9.80147724,10.0336897 10.2477627,9.75182823 C10.320091,9.70626352 10.364035,9.62634955 10.364035,9.54036942 L10.364035,5.54963321 C10.3643164,5.4672377 10.3242055,5.39002069 10.2568647,5.34332393 C10.1895239,5.29662717 10.1036482,5.28648007 10.0274209,5.31621279 L10.0274209,5.31621279 Z" id="路径"></path>
                </g>
            </g>
        </g>
    </g>
</svg>