<svg t="1716876209572" class="icon" viewBox="0 0 1024 1024" version="1.1" xmlns="http://www.w3.org/2000/svg" p-id="4081" width="200" height="200"><path d="M704 192a106.666667 106.666667 0 0 1 106.666667 106.666667v469.333333a106.666667 106.666667 0 0 1-106.666667 106.666667H320a106.666667 106.666667 0 0 1-106.666667-106.666667V298.666667a106.666667 106.666667 0 0 1 106.666667-106.666667 21.333333 21.333333 0 1 0 0-42.666667 149.333333 149.333333 0 0 0-149.333333 149.333334v469.333333a149.333333 149.333333 0 0 0 149.333333 149.333333h384a149.333333 149.333333 0 0 0 149.333333-149.333333V298.666667a149.333333 149.333333 0 0 0-149.333333-149.333334 21.333333 21.333333 0 0 0 0 42.666667z" fill="#222222" p-id="4082"></path><path d="M320 554.666667a21.333333 21.333333 0 0 1 0-42.666667h384a21.333333 21.333333 0 0 1 0 42.666667H320z m0-128a21.333333 21.333333 0 0 1 0-42.666667h384a21.333333 21.333333 0 0 1 0 42.666667H320z m0 256a21.333333 21.333333 0 0 1 0-42.666667h384a21.333333 21.333333 0 0 1 0 42.666667H320zM405.333333 192h213.333334a21.333333 21.333333 0 0 0 0-42.666667H405.333333a21.333333 21.333333 0 0 0 0 42.666667z" fill="#222222" p-id="4083"></path></svg>