<svg xmlns="http://www.w3.org/2000/svg" xmlns:xlink="http://www.w3.org/1999/xlink" fill="none" version="1.1" width="20" height="20" viewBox="0 0 20 20"><defs><clipPath id="master_svg0_85_5264"><rect x="0" y="0" width="20" height="20" rx="0"/></clipPath></defs><g clip-path="url(#master_svg0_85_5264)"><g><path d="M3.95833,4.99983390625L3.125,4.99983390625C2.7798220000000002,4.99983390625,2.5,4.72001390625,2.5,4.37483390625C2.5,4.029663906250001,2.7798220000000002,3.74983390625,3.125,3.74983390625L16.875,3.74983390625C17.2202,3.74983390625,17.5,4.029663906250001,17.5,4.37483390625C17.5,4.72001390625,17.2202,4.99983390625,16.875,4.99983390625L5.20833,4.99983390625L5.20833,16.04150390625C5.20833,16.61680390625,5.6747,17.08320390625,6.25,17.08320390625L13.75,17.08320390625C14.3253,17.08320390625,14.7917,16.61680390625,14.7917,16.04150390625L14.7917,6.87483390625C14.7917,6.52966390625,15.0715,6.24983390625,15.4167,6.24983390625C15.7618,6.24983390625,16.0417,6.52966390625,16.0417,6.87483390625L16.0417,16.04150390625C16.0417,17.30710390625,15.0156,18.33320390625,13.75,18.33320390625L6.25,18.33320390625C4.98438,18.33320390625,3.95833,17.30710390625,3.95833,16.04150390625L3.95833,4.99983390625ZM8.33333,2.91650390625C7.98815,2.91650390625,7.70833,2.6366819062499998,7.70833,2.29150390625C7.70833,1.94632590625,7.98815,1.66650390625,8.33333,1.66650390625L11.66667,1.66650390625C12.01184,1.66650390625,12.29167,1.94632590625,12.29167,2.29150390625C12.29167,2.6366819062499998,12.01184,2.91650390625,11.66667,2.91650390625L8.33333,2.91650390625ZM7.70833,8.54150390625C7.70833,8.19632390625,7.98815,7.91650390625,8.33333,7.91650390625C8.67851,7.91650390625,8.95833,8.19632390625,8.95833,8.54150390625L8.95833,13.54150390625C8.95833,13.88670390625,8.67851,14.16650390625,8.33333,14.16650390625C7.98815,14.16650390625,7.70833,13.88670390625,7.70833,13.54150390625L7.70833,8.54150390625ZM11.04167,8.54150390625C11.04167,8.19632390625,11.32149,7.91650390625,11.66667,7.91650390625C12.01184,7.91650390625,12.29167,8.19632390625,12.29167,8.54150390625L12.29167,13.54150390625C12.29167,13.88670390625,12.01184,14.16650390625,11.66667,14.16650390625C11.32149,14.16650390625,11.04167,13.88670390625,11.04167,13.54150390625L11.04167,8.54150390625Z" fill="#F16E6E" fill-opacity="1"/></g></g></svg>