<svg xmlns="http://www.w3.org/2000/svg" xmlns:xlink="http://www.w3.org/1999/xlink" fill="none" version="1.1" width="16" height="16" viewBox="0 0 16 16"><g><g></g><g><path d="M4.475729976158142,7.92463L7.557489976158142,11.00638C7.563399976158142,11.01283,7.569489976158142,11.01919,7.575739976158142,11.02544C7.692999976158142,11.1427,7.846719976158142,11.20127,8.000399976158143,11.20117C8.154089976158142,11.20127,8.307809976158142,11.1427,8.425069976158142,11.02544C8.431319976158143,11.01919,8.437399976158142,11.01283,8.443319976158142,11.00638L11.525069976158141,7.92463C11.759389976158142,7.69031,11.759389976158142,7.31041,11.525069976158141,7.0761C11.290759976158142,6.84178,10.910859976158141,6.84178,10.676539976158143,7.0761L8.599999976158141,9.15264L8.599999976158141,2.6Q8.599999976158141,2.540905,8.588469976158141,2.482946Q8.576939976158142,2.424986,8.554329976158142,2.37039Q8.531709976158142,2.315793,8.498879976158143,2.266658Q8.466049976158143,2.2175219999999998,8.424259976158142,2.175736Q8.382479976158141,2.13395,8.333339976158143,2.101118Q8.284209976158142,2.0682869,8.229609976158141,2.0456723Q8.175009976158142,2.0230577,8.117049976158142,2.0115288Q8.059089976158141,2,7.999999976158142,2Q7.940899976158142,2,7.882939976158142,2.0115288Q7.824989976158142,2.0230577,7.7703899761581425,2.0456723Q7.715789976158142,2.0682869,7.666659976158142,2.101118Q7.6175199761581425,2.13395,7.575739976158142,2.175736Q7.533949976158142,2.2175219999999998,7.501119976158142,2.266658Q7.468289976158142,2.315793,7.445669976158142,2.37039Q7.423059976158142,2.424986,7.411529976158142,2.482946Q7.399999976158142,2.540905,7.399999976158142,2.6L7.399999976158142,9.15184L5.324259976158142,7.0761C5.089949976158142,6.84178,4.7100499761581425,6.84178,4.475729976158142,7.0761C4.2414199761581415,7.31041,4.2414199761581415,7.69031,4.475729976158142,7.92463ZM14.099999976158141,10.0043C14.099999976158141,9.672930000000001,13.831399976158142,9.4043,13.499999976158142,9.4043C13.168599976158141,9.4043,12.899999976158142,9.672930000000001,12.899999976158142,10.0043L12.899999976158142,11.89989C12.899999976158142,12.4522,12.452299976158143,12.8999,11.899999976158142,12.8999L4.099999976158142,12.8999C3.547719976158142,12.8999,3.0999999761581423,12.4522,3.0999999761581423,11.89989L3.0999999761581423,10.0107C3.0999999761581423,9.67933,2.831370976158142,9.4107,2.499999976158142,9.4107C2.168628976158142,9.4107,1.899999976158142,9.67933,1.899999976158142,10.0107L1.899999976158142,11.89989C1.899999976158142,13.1149,2.8849739761581423,14.0999,4.099999976158142,14.0999L11.899999976158142,14.0999C13.114999976158142,14.0999,14.099999976158141,13.1149,14.099999976158141,11.89989L14.099999976158141,10.0043Z" fill-rule="evenodd" fill="#1966FF" fill-opacity="1"/></g></g></svg>