<svg xmlns="http://www.w3.org/2000/svg" xmlns:xlink="http://www.w3.org/1999/xlink" fill="none" version="1.1" width="32" height="32" viewBox="0 0 32 32"><g><g><rect x="0" y="0" width="32" height="32" rx="4" fill="#EAFFEB" fill-opacity="1"/></g><g><g><g><path d="M11.015380190734863,7.200000286102295L18.769230190734863,7.200000286102295L23.200000190734862,11.893330286102294L23.200000190734862,22.453300286102294C23.200000190734862,23.744000286102295,22.203100190734865,24.800000286102296,20.984600190734863,24.800000286102296L11.015380190734863,24.800000286102296C9.796923190734864,24.800000286102296,8.800000190734863,23.744000286102295,8.800000190734863,22.453300286102294L8.800000190734863,9.546670286102295C8.800000190734863,8.256000286102296,9.796923190734864,7.200000286102295,11.015380190734863,7.200000286102295Z" fill="#7CE27E" fill-opacity="1"/></g><g style="opacity:0.6190000176429749;"><path d="M18.76923084259035,7.200000286102299L23.20000084259033,11.893330286102294L19.930520842590333,11.893330286102294C19.23374684259033,11.893330286102294,18.769230825579232,11.404440286102295,18.76923084259035,10.671110286102294L18.76923084259035,7.200000286102299Z" fill="#D1FAD0" fill-opacity="1"/></g></g><g><g><path d="M11.184935453964233,17.147826671600342L12.846744453964234,19.36631667160034L11.073684453964233,21.739126671600342L12.067986453964233,21.739126671600342L13.347364453964234,19.964336671600343L14.626754453964233,21.739126671600342L15.621054453964234,21.739126671600342L13.834094453964234,19.36631667160034L15.509804453964232,17.147826671600342L14.515504453964233,17.147826671600342L13.347364453964234,18.768286671600343L12.179234453964234,17.147826671600342L11.184935453964233,17.147826671600342Z" fill="#FFFFFF" fill-opacity="1"/></g></g></g></g></svg>