<svg xmlns="http://www.w3.org/2000/svg" xmlns:xlink="http://www.w3.org/1999/xlink"  version="1.1" width="24" height="24" viewBox="0 0 24 24"><defs><clipPath id="master_svg0_85_392"><rect x="0" y="0" width="24" height="24" rx="0"/></clipPath></defs><g clip-path="url(#master_svg0_85_392)"><g><path d="M13.952422333984375,8.70996685546875C13.952422333984375,9.85427685546875,13.412162333984375,10.87427685546875,12.574552333984375,11.53122685546875C14.781592333984374,12.41292685546875,16.345592333984374,14.56755685546875,16.345592333984374,17.08437685546875L16.345592333984374,18.280676855468748C16.345792333984377,18.611076855468752,16.077992333984376,18.87887685546875,15.747592333984375,18.87867685546875L4.981392333984375,18.87867685546875C4.651046333984375,18.87887685546875,4.383200896984375,18.611076855468752,4.383392333984375,18.280676855468748L4.383392333984375,17.08437685546875C4.383392333984375,14.56825685546875,5.948152333984375,12.41292685546875,8.153612333984375,11.53192685546875C7.316512333984376,10.87410685546875,6.775732333984375,9.855486855468751,6.775732333984375,8.71065685546875C6.775732333984375,6.73167685546875,8.384752333984375,5.12127685546875,10.363732333984375,5.12127685546875C12.342722333984375,5.12127685546875,13.952422333984375,6.73098685546875,13.952422333984375,8.70996685546875ZM12.757112333984375,8.71082685546875C12.757112333984375,7.39121685546875,11.684032333984375,6.31831685546875,10.364602333984376,6.31831685546875L10.364422333984376,6.31813685546875C9.044992333984375,6.31813685546875,7.971912333984375,7.39121685546875,7.971912333984375,8.71065685546875C7.971912333984375,10.03009685546875,9.045162333984376,11.10317685546875,10.364602333984376,11.10317685546875C11.684032333984375,11.10317685546875,12.757112333984375,10.03043685546875,12.757112333984375,8.71082685546875ZM15.428192333984375,6.42048685546875C17.588292333984377,7.00050685546875,18.368292333984375,9.661416855468751,16.863092333984376,11.31581685546875L16.864092333984374,11.31564685546875C18.420692333984377,12.12231685546875,19.435892333984377,13.73565685546875,19.435892333984377,15.56097685546875L19.435892333984377,16.486076855468752C19.435392333984375,16.517176855468747,19.432492333984374,16.54777685546875,19.427392333984375,16.57757685546875Q19.405092333984374,17.103376855468753,18.857092333984376,17.103376855468753L17.960192333984374,17.103376855468753Q17.388992333984376,17.103376855468753,17.388992333984376,16.532176855468748Q17.388992333984376,15.96097685546875,17.960192333984374,15.96097685546875L18.239692333984372,15.96097685546875L18.239692333984372,15.56077685546875C18.244592333984375,13.91723685546875,17.126792333984376,12.48274685546875,15.531892333984375,12.085836855468749C15.326992333984375,12.059746855468749,15.150592333984376,11.928676855468751,15.066492333984375,11.74007685546875C15.050092333984376,11.70376685546875,15.050092333984376,11.66538685546875,15.041892333984375,11.627876855468749C15.035292333984374,11.605196855468751,15.030192333984376,11.58209685546875,15.026692333984375,11.558716855468749C15.022692333984375,11.51259685546875,15.024292333984375,11.46615685546875,15.031392333984375,11.420416855468751C15.032392333984374,11.410246855468749,15.031992333984375,11.40028685546875,15.031592333984374,11.390356855468749C15.030992333984376,11.376316855468751,15.030392333984375,11.36235685546875,15.033792333984374,11.347976855468751C15.037092333984376,11.33379685546875,15.046892333984376,11.32342685546875,15.051092333984375,11.30994685546875C15.060892333984375,11.28423685546875,15.072492333984375,11.25922685546875,15.085692333984374,11.23508685546875C15.108492333984374,11.18390685546875,15.138592333984375,11.13627685546875,15.175092333984376,11.09366685546875C15.179692333984375,11.08847685546875,15.185592333984374,11.085026855468751,15.190292333984376,11.07966685546875C15.244192333984374,11.02320685546875,15.308792333984375,10.97811685546875,15.380392333984375,10.94706685546875C16.073792333984375,10.63765685546875,16.497292333984376,9.92541685546875,16.438192333984375,9.16849685546875C16.378992333984375,8.41157685546875,15.849892333984375,7.77379685546875,15.116992333984374,7.57585685546875C14.798892333984375,7.48908685546875,14.610992333984376,7.16139685546875,14.696792333984375,6.84308685546875C14.782492333984376,6.52476685546875,15.109592333984375,6.33578685546875,15.428192333984375,6.42048685546875ZM10.355252333984375,16.591876855468747L9.670122333984375,15.85937685546875L10.058532333984374,12.309216855468751C7.561892333984375,12.46769685546875,5.579392333984375,14.54892685546875,5.579392333984375,17.08437685546875L5.579392333984375,17.68257685546875L15.149492333984375,17.68257685546875L15.149492333984375,17.08437685546875C15.149492333984375,14.54450685546875,13.161002333984374,12.46043685546875,10.658282333984374,12.30840685546875L11.046782333984375,15.85937685546875L10.361652333984374,16.591876855468747L10.361652333984374,12.299516855468749L10.355252333984375,12.29952685546875L10.355252333984375,16.591876855468747Z" /></g></g></svg>