<?xml version="1.0" standalone="no"?><!DOCTYPE svg PUBLIC "-//W3C//DTD SVG 1.1//EN" "http://www.w3.org/Graphics/SVG/1.1/DTD/svg11.dtd"><svg t="1715221286940" class="icon" viewBox="0 0 1024 1024" version="1.1" xmlns="http://www.w3.org/2000/svg" p-id="1567" xmlns:xlink="http://www.w3.org/1999/xlink" width="200" height="200"><path d="M679.170882 398.98197 679.170882 126.497019c0 0-133.338844-71.481008-288.989857-16.365736L679.170882 398.98197zM704.414823 559.284933 704.414823 137.748271c0 0 157.630087 71.433936 202.051809 244.963131L704.414823 559.284933zM619.614461 681.811524l290.99042-273.64845c0 0 51.487651 83.708494-25.293059 273.64845L619.614461 681.811524zM471.029378 716.50672l393.014048 0c0 0-47.444569 128.594797-217.255069 181.688016L471.029378 716.50672zM342.736457 629.695562l0 256.17959c0 0 102.071723 65.36573 276.878005 21.478174L342.736457 629.695562zM115.370099 642.946354 314.44511 464.326211l0 406.206512C314.44511 870.5317 194.172863 828.782853 115.370099 642.946354zM110.3252 614.376669c0 0-45.538149-146.935514 18.154475-274.554076l273.811156 0L110.3252 614.376669zM145.682475 311.183322c0 0 57.602929-130.594337 214.20971-191.869912l186.893574 191.869912L145.682475 311.183322z"  p-id="1568"></path></svg>