<svg xmlns="http://www.w3.org/2000/svg" xmlns:xlink="http://www.w3.org/1999/xlink"  version="1.1" width="24" height="24" viewBox="0 0 24 24"><defs><clipPath id="master_svg0_85_404"><rect x="0" y="0" width="24" height="24" rx="0"/></clipPath></defs><g clip-path="url(#master_svg0_85_404)"><g><path d="M16.916668823242187,10.642385869140625C17.567368823242187,10.146325869140625,17.98726882324219,9.363015869140625,17.98726882324219,8.481615869140626C17.98726882324219,6.981975869140625,16.771568823242188,5.766265869140625,15.271968823242187,5.766265869140625C13.772288823242187,5.766265869140625,12.556578823242187,6.981975869140625,12.556578823242187,8.481615869140626C12.556578823242187,9.213525869140625,12.846148823242187,9.877795869140625,13.316978823242188,10.366115869140625Q13.076608823242188,10.439815869140624,12.841908823242187,10.539085869140624Q12.404128823242187,10.724255869140624,12.009108823242187,10.991095869140626C11.850838823242189,11.098025869140624,11.755998823242187,11.276555869140626,11.755998823242187,11.467555869140625C11.755998823242187,11.785115869140625,12.013428823242187,12.042555869140624,12.330998823242187,12.042555869140624C12.445718823242188,12.042555869140624,12.557818823242187,12.008235869140625,12.652888823242188,11.944015869140625Q12.955088823242187,11.739855869140625,13.289888823242187,11.598235869140625Q13.986328823242188,11.303675869140626,14.749968823242188,11.303675869140626Q16.303868823242187,11.303675869140626,17.402568823242188,12.402435869140625Q17.92176882324219,12.921635869140625,18.206768823242186,13.595045869140625C18.29676882324219,13.807805869140624,18.505368823242186,13.946055869140626,18.736368823242188,13.946055869140626C19.053968823242187,13.946055869140626,19.311368823242187,13.688615869140625,19.311368823242187,13.371055869140626C19.311368823242187,13.294095869140625,19.295968823242188,13.217935869140625,19.265568823242187,13.146265869140624Q18.893568823242187,12.267055869140625,18.215768823242186,11.589265869140625Q17.617768823242187,10.991285869140626,16.916668823242187,10.642385869140625ZM19.348868823242185,15.269225869140625L19.348868823242185,16.658765869140623Q19.348868823242185,17.311165869140623,18.887468823242187,17.772465869140625Q18.426168823242186,18.233765869140626,17.77386882324219,18.233765869140626L6.226168823242188,18.233765869140626Q5.573781823242188,18.233765869140626,5.112475823242187,17.772465869140625Q4.6511688232421875,17.311165869140623,4.6511688232421875,16.658765869140623L4.6511688232421875,8.142715869140625Q4.6511688232421875,7.490335869140625,5.112475823242187,7.029025869140625Q5.573782823242188,6.567718869140625,6.226168823242188,6.567718869140625L11.066868823242189,6.567718869140625C11.384428823242187,6.567718869140625,11.641858823242188,6.825155869140625,11.641858823242188,7.142715869140625C11.641858823242188,7.460285869140625,11.384428823242187,7.7177158691406245,11.066868823242189,7.7177158691406245L6.226168823242188,7.7177158691406245Q6.050128823242187,7.7177158691406245,5.925648823242188,7.842195869140625Q5.801168823242188,7.966675869140625,5.801168823242188,8.142715869140625L5.801168823242188,16.658765869140623Q5.801168823242188,16.834765869140625,5.925648823242188,16.959265869140623Q6.050128823242187,17.083765869140628,6.226168823242188,17.083765869140628L17.77386882324219,17.083765869140628Q17.949868823242188,17.083765869140628,18.07436882324219,16.959265869140623Q18.198868823242186,16.834765869140625,18.198868823242186,16.658765869140623L18.198868823242186,15.269225869140625C18.198868823242186,14.951655869140625,18.456268823242187,14.694225869140626,18.77386882324219,14.694225869140626C19.09136882324219,14.694225869140626,19.348868823242185,14.951655869140625,19.348868823242185,15.269225869140625ZM16.37876882324219,7.374745869140625Q16.837268823242187,7.833225869140625,16.837268823242187,8.481615869140626Q16.837268823242187,9.130015869140625,16.37876882324219,9.588495869140624Q15.920368823242187,10.046975869140624,15.271968823242187,10.046975869140624Q14.623538823242187,10.046975869140624,14.165058823242187,9.588495869140624Q13.706578823242188,9.130015869140625,13.706578823242188,8.481615869140626Q13.706578823242188,7.833225869140625,14.165058823242187,7.374745869140625Q14.623538823242187,6.916265869140625,15.271968823242187,6.916265869140625Q15.920368823242187,6.916265869140625,16.37876882324219,7.374745869140625ZM7.551058823242188,10.461405869140625Q7.494428823242187,10.461405869140625,7.438878823242188,10.472455869140624Q7.3833388232421875,10.483505869140625,7.331018823242188,10.505175869140626Q7.278698823242188,10.526855869140626,7.231608823242187,10.558315869140625Q7.184518823242188,10.589775869140624,7.144468823242187,10.629825869140625Q7.104428823242188,10.669865869140626,7.072958823242187,10.716955869140625Q7.041498823242188,10.764045869140624,7.019828823242188,10.816365869140625Q6.998158823242187,10.868685869140625,6.987108823242187,10.924235869140624Q6.976058823242187,10.979775869140624,6.976058823242187,11.036405869140625Q6.976058823242187,11.093045869140624,6.987108823242187,11.148585869140625Q6.998158823242187,11.204135869140625,7.019828823242188,11.256455869140625Q7.041498823242188,11.308775869140625,7.072958823242187,11.355865869140626Q7.104428823242188,11.402955869140625,7.144468823242187,11.442995869140624Q7.184518823242188,11.483045869140625,7.231608823242187,11.514505869140624Q7.278698823242188,11.545965869140625,7.331018823242188,11.567635869140625Q7.3833388232421875,11.589315869140625,7.438878823242188,11.600365869140624Q7.494428823242187,11.611405869140626,7.551058823242188,11.611405869140626L10.296198823242188,11.611405869140626Q10.352828823242188,11.611405869140626,10.408378823242188,11.600365869140624Q10.463918823242189,11.589315869140625,10.516238823242187,11.567645869140625Q10.568568823242188,11.545965869140625,10.615648823242188,11.514505869140624Q10.662738823242186,11.483045869140625,10.702788823242187,11.442995869140624Q10.742828823242188,11.402955869140625,10.774298823242187,11.355865869140626Q10.805758823242186,11.308775869140625,10.827428823242187,11.256455869140625Q10.849098823242187,11.204135869140625,10.860148823242188,11.148585869140625Q10.871198823242189,11.093045869140624,10.871198823242189,11.036405869140625Q10.871198823242189,10.979775869140624,10.860148823242188,10.924235869140624Q10.849098823242187,10.868685869140625,10.827428823242187,10.816365869140625Q10.805758823242186,10.764045869140624,10.774298823242187,10.716955869140625Q10.742828823242188,10.669865869140626,10.702788823242187,10.629825869140625Q10.662738823242186,10.589775869140624,10.615648823242188,10.558315869140625Q10.568568823242188,10.526855869140626,10.516238823242187,10.505175869140626Q10.463918823242189,10.483505869140625,10.408378823242188,10.472455869140624Q10.352828823242188,10.461405869140625,10.296198823242188,10.461405869140625L7.551058823242188,10.461405869140625ZM7.551058823242188,13.687945869140625Q7.494428823242187,13.687945869140625,7.438878823242188,13.698985869140625Q7.3833388232421875,13.710035869140626,7.331018823242188,13.731715869140626Q7.278698823242188,13.753385869140626,7.231608823242187,13.784845869140625Q7.184518823242188,13.816305869140624,7.144468823242187,13.856355869140625Q7.104428823242188,13.896395869140624,7.072958823242187,13.943485869140625Q7.041498823242188,13.990575869140624,7.019828823242188,14.042895869140626Q6.998158823242187,14.095215869140626,6.987108823242187,14.150765869140624Q6.976058823242187,14.206305869140625,6.976058823242187,14.262945869140625Q6.976058823242187,14.319575869140625,6.987108823242187,14.375115869140625Q6.998158823242187,14.430665869140626,7.019828823242188,14.482985869140625Q7.041498823242188,14.535305869140625,7.072958823242187,14.582395869140624Q7.104428823242188,14.629485869140625,7.144468823242187,14.669525869140625Q7.184518823242188,14.709575869140625,7.231608823242187,14.741035869140624Q7.278698823242188,14.772495869140625,7.331018823242188,14.794175869140625Q7.3833388232421875,14.815845869140626,7.438878823242188,14.826895869140625Q7.494428823242187,14.837945869140626,7.551058823242188,14.837945869140626L15.165068823242187,14.837945869140626Q15.221768823242188,14.837945869140626,15.277268823242187,14.826895869140625Q15.332868823242187,14.815845869140626,15.385168823242187,14.794175869140625Q15.437468823242188,14.772495869140625,15.484568823242187,14.741035869140624Q15.531668823242187,14.709575869140625,15.571668823242188,14.669525869140625Q15.611768823242187,14.629485869140625,15.643168823242188,14.582395869140624Q15.674668823242188,14.535305869140625,15.696368823242187,14.482985869140625Q15.717968823242188,14.430665869140626,15.729068823242187,14.375115869140625Q15.740068823242188,14.319575869140625,15.740068823242188,14.262945869140625Q15.740068823242188,14.206305869140625,15.729068823242187,14.150765869140624Q15.717968823242188,14.095215869140626,15.696368823242187,14.042895869140626Q15.674668823242188,13.990575869140624,15.643168823242188,13.943485869140625Q15.611768823242187,13.896395869140624,15.571668823242188,13.856355869140625Q15.531668823242187,13.816305869140624,15.484568823242187,13.784845869140625Q15.437468823242188,13.753385869140626,15.385168823242187,13.731715869140626Q15.332868823242187,13.710035869140626,15.277268823242187,13.698985869140625Q15.221768823242188,13.687945869140625,15.165068823242187,13.687945869140625L7.551058823242188,13.687945869140625Z"/></g></g></svg>