<svg xmlns="http://www.w3.org/2000/svg" xmlns:xlink="http://www.w3.org/1999/xlink" fill="none" version="1.1" width="16" height="16" viewBox="0 0 16 16"><g><g></g><g><path d="M11.2363,1.7915839999999998C10.24549,1.274115,9.14176,1,8,1C4.13401,1,1,4.13401,1,8C1,11.866,4.13401,15,8,15C11.866,15,15,11.866,15,8C15,7.78261,14.9901,7.56634,14.9703,7.35165C14.9382,7.00167,14.6284,6.74404,14.2784,6.77622C13.9284,6.8084,13.6708,7.1182,13.7029,7.46818C13.7191,7.64414,13.7273,7.82153,13.7273,8C13.7273,11.1631,11.1631,13.7273,8,13.7273C4.83691,13.7273,2.27273,11.1631,2.27273,8C2.27273,4.83691,4.83691,2.27273,8,2.27273C8.93536,2.27273,9.83712,2.49668,10.64716,2.91973C10.95868,3.08242,11.3431,2.96177,11.5058,2.65024C11.6685,2.33872,11.5479,1.95428,11.2363,1.7915839999999998ZM14.7133,2.2881C14.4638,2.03801,14.0586,2.03735,13.8083,2.28662L7.70947,8.35934L6.08979,6.76037C5.83843,6.51215,5.43325,6.5145,5.1848,6.76564C4.9363600000000005,7.01677,4.93871,7.42158,5.19007,7.6698L7.26158,9.71546C7.51161,9.96238,7.91419,9.96153,8.16319,9.71358L14.7118,3.19228C14.9621,2.94301,14.9628,2.53819,14.7133,2.2881Z" fill-rule="evenodd" fill="#52C41A" fill-opacity="1"/></g></g></svg>