<svg xmlns="http://www.w3.org/2000/svg" xmlns:xlink="http://www.w3.org/1999/xlink"  version="1.1" width="24" height="24" viewBox="0 0 24 24"><defs><clipPath id="master_svg0_85_382"><rect x="0" y="0" width="24" height="24" rx="0"/></clipPath></defs><g clip-path="url(#master_svg0_85_382)"><g><path d="M4.426399358398437,11.50833023071289C4.2432863583984375,11.50833023071289,4.063161358398437,11.421750230712892,3.9505613583984376,11.26011023071289C3.7676840583984377,10.997590230712891,3.8322394583984374,10.636530230712891,4.0947693583984375,10.45365023071289L11.590022358398437,5.232286230712891C11.795222358398437,5.089353930712891,12.068982358398438,5.0942224307128905,12.268972358398438,5.24436123071289L19.223042358398438,10.46571023071289C19.47884235839844,10.65782023071289,19.530542358398435,11.020950230712891,19.33844235839844,11.27680023071289C19.146342358398435,11.53265023071289,18.78324235839844,11.58433023071289,18.527342358398435,11.392200230712891L11.908422358398438,6.42249023071289L4.756996358398437,11.40432023071289C4.660075358398437,11.47208023071289,4.544659358398437,11.508390230712891,4.426399358398437,11.50833023071289ZM17.699642358398435,19.608130230712888L13.667672358398438,19.608130230712888C13.347732358398437,19.608130230712888,13.088372358398438,19.348830230712892,13.088372358398438,19.02883023071289L13.088372358398438,14.979660230712891L10.764002358398438,14.979660230712891L10.764002358398438,19.02883023071289C10.764002358398438,19.348830230712892,10.504632358398437,19.608130230712888,10.184702358398438,19.608130230712888L6.065732358398438,19.608130230712888C5.7458023583984374,19.608130230712888,5.486442358398437,19.348830230712892,5.486442358398437,19.02883023071289L5.486442358398437,12.104940230712891C5.486442358398437,11.78500023071289,5.7458023583984374,11.525640230712892,6.065732358398438,11.525640230712892C6.385672358398438,11.525640230712892,6.645032358398438,11.78500023071289,6.645032358398438,12.104940230712891L6.645032358398438,18.449530230712888L9.605402358398438,18.449530230712888L9.605402358398438,14.400370230712891C9.605402358398438,14.08043023071289,9.864762358398437,13.821070230712891,10.184702358398438,13.821070230712891L13.667672358398438,13.821070230712891C13.987642358398437,13.821070230712891,14.246942358398437,14.08043023071289,14.246942358398437,14.400370230712891L14.246942358398437,18.449530230712888L17.120442358398435,18.449530230712888L17.120442358398435,12.104940230712891C17.120442358398435,11.78500023071289,17.37974235839844,11.525640230712892,17.69974235839844,11.525640230712892C18.019642358398436,11.525640230712892,18.279042358398435,11.78500023071289,18.279042358398435,12.104940230712891L18.279042358398435,19.02883023071289C18.27894235839844,19.34873023071289,18.019642358398436,19.608130230712888,17.699642358398435,19.608130230712888Z"  /></g></g></svg>