<svg xmlns="http://www.w3.org/2000/svg" xmlns:xlink="http://www.w3.org/1999/xlink" fill="none" version="1.1" width="16" height="16" viewBox="0 0 16 16"><defs><clipPath id="master_svg0_85_56152"><rect x="0" y="0" width="16" height="16" rx="0"/></clipPath></defs><g clip-path="url(#master_svg0_85_56152)"><g><path d="M8.368745,7.99716796875C9.854685,7.83310796875,11.057815,6.62997796875,11.221875,5.14404796875C11.437495,3.18778796875,9.912495,1.53466796875,7.999995,1.53466796875C6.209375,1.53466796875,4.757815,2.98466796875,4.757815,4.7752979687499995L4.757815,4.77685796875C4.757815,6.68935796875,6.412495,8.21279796875,8.368745,7.99716796875ZM7.999995,8.94403796875C5.835935,8.94403796875,1.515625,10.18466796875,1.515625,12.64876796875L1.515625,14.03776796875C1.515625,14.29406796875,1.723437,14.50026796875,1.978125,14.50026796875L14.020325,14.50026796875C14.276525,14.50026796875,14.482825,14.29246796875,14.482825,14.03776796875L14.482825,12.64876796875C14.484325,10.18622796875,10.164065,8.94403796875,7.999995,8.94403796875Z" fill="#B2C0D9" fill-opacity="1"/></g></g></svg>