<svg xmlns="http://www.w3.org/2000/svg" xmlns:xlink="http://www.w3.org/1999/xlink" fill="none" version="1.1" width="16" height="16" viewBox="0 0 16 16"><defs><clipPath id="master_svg0_85_56169"><rect x="0" y="0" width="16" height="16" rx="0"/></clipPath></defs><g clip-path="url(#master_svg0_85_56169)"><g><path d="M3.24793,10.91914L2.0382931,12.9969C1.9190569,13.2025,2.095319,13.4525,2.3320629999999998,13.4097L3.9253299999999998,13.1254C4.0601199999999995,13.1014,4.19318,13.1768,4.23984,13.3052L4.78764,14.816C4.86885,15.0387,5.174720000000001,15.0661,5.2956900000000005,14.8606L6.40337,12.9592C5.14189,12.6235,4.04457,11.89892,3.24793,10.91914ZM12.735,10.89345C11.94353,11.87837,10.84967,12.6081,9.59337,12.9524L10.70451,14.8606C10.82375,15.0661,11.13134,15.0387,11.21256,14.816L11.76036,13.3069C11.80701,13.1785,11.94007,13.1031,12.0749,13.1271L13.6681,13.4114C13.9032,13.4543,14.0811,13.2025,13.9619,12.9986L12.735,10.89345ZM7.98109,2C5.11942,2,2.789999,4.30901,2.789999,7.14559C2.789999,8.24014,3.1390700000000002,9.254190000000001,3.73006,10.09009C4.67013,11.41931,6.22365,12.2912,7.98109,12.2912C10.84448,12.2912,13.1722,9.98218,13.1722,7.14559C13.1722,4.30901,10.84448,2,7.98109,2ZM9.53116,9.25761L8.0001,8.459399999999999L6.46904,9.25761L6.76108,7.56697L5.52206,6.36964L7.23457,6.12298L8.0001,4.58479L8.76563,6.12298L10.47814,6.36964L9.23912,7.56697L9.53116,9.25761Z" fill="#B2C0D9" fill-opacity="1"/></g></g></svg>