<svg xmlns="http://www.w3.org/2000/svg" xmlns:xlink="http://www.w3.org/1999/xlink" fill="none" version="1.1" width="16" height="16" viewBox="0 0 16 16"><g><g></g><g><path d="M7.575739976158142,2.0760987300262452C7.569489976158142,2.0823487300262453,7.563399976158142,2.0887027300262453,7.557489976158142,2.095153730026245L4.475729976158142,5.176902730026245C4.2414199761581415,5.411222730026245,4.2414199761581415,5.791122730026245,4.475729976158142,6.025432730026245C4.7100499761581425,6.259752730026245,5.089949976158142,6.259752730026245,5.324259976158142,6.025432730026245L7.399999976158142,3.949692730026245L7.399999976158142,10.300022730026246Q7.399999976158142,10.359112730026245,7.411529976158142,10.417072730026245Q7.423059976158142,10.475032730026244,7.445669976158142,10.529632730026245Q7.468289976158142,10.584222730026244,7.501119976158142,10.633362730026246Q7.533949976158142,10.682502730026245,7.575739976158142,10.724282730026244Q7.6175199761581425,10.766072730026245,7.666659976158142,10.798902730026246Q7.715789976158142,10.831732730026244,7.7703899761581425,10.854352730026244Q7.824989976158142,10.876962730026245,7.882949976158142,10.888492730026245Q7.940899976158142,10.900022730026246,7.999999976158142,10.900022730026246Q8.059089976158141,10.900022730026246,8.117049976158142,10.888492730026245Q8.175009976158142,10.876962730026245,8.229609976158141,10.854352730026244Q8.284209976158142,10.831732730026244,8.333339976158143,10.798902730026246Q8.382479976158141,10.766072730026245,8.424259976158142,10.724282730026244Q8.466049976158143,10.682492730026246,8.498879976158143,10.633362730026246Q8.531709976158142,10.584222730026244,8.554329976158142,10.529632730026245Q8.576939976158142,10.475032730026244,8.588469976158141,10.417072730026245Q8.599999976158141,10.359112730026245,8.599999976158141,10.300022730026246L8.599999976158141,3.948892730026245L10.676539976158143,6.025432730026245C10.910859976158141,6.259752730026245,11.290759976158142,6.259752730026245,11.525069976158141,6.025432730026245C11.759389976158142,5.791122730026245,11.759389976158142,5.411222730026245,11.525069976158141,5.176902730026245L8.443319976158142,2.095153730026245C8.437399976158142,2.0887027300262453,8.431319976158143,2.0823487300262453,8.425069976158142,2.0760987300262452C8.307809976158142,1.9588389300262452,8.154089976158142,1.900260319026245,8.000399976158143,1.9003627300262451C7.846719976158142,1.900260317026245,7.692999976158142,1.9588389300262452,7.575739976158142,2.0760987300262452ZM14.099999976158141,10.004512730026246C14.099999976158141,9.673142730026246,13.831399976158142,9.404512730026244,13.499999976158142,9.404512730026244C13.168599976158141,9.404512730026244,12.899999976158142,9.673142730026246,12.899999976158142,10.004512730026246L12.899999976158142,11.900102730026244C12.899999976158142,12.452362730026245,12.452299976158143,12.900062730026246,11.899999976158142,12.900062730026246L4.099999976158142,12.900062730026246C3.547719976158142,12.900062730026246,3.0999999761581423,12.452362730026245,3.0999999761581423,11.900102730026244L3.0999999761581423,10.010912730026245C3.0999999761581423,9.679542730026245,2.831370976158142,9.410912730026245,2.499999976158142,9.410912730026245C2.168628976158142,9.410912730026245,1.899999976158142,9.679542730026245,1.899999976158142,10.010912730026245L1.899999976158142,11.900102730026244C1.899999976158142,13.115162730026245,2.8849739761581423,14.100062730026245,4.099999976158142,14.100062730026245L11.899999976158142,14.100062730026245C13.114999976158142,14.100062730026245,14.099999976158141,13.115162730026245,14.099999976158141,11.900102730026244L14.099999976158141,10.004512730026246Z" fill-rule="evenodd" fill="#1966FF" fill-opacity="1"/></g></g></svg>