<?xml version="1.0" standalone="no"?><!DOCTYPE svg PUBLIC "-//W3C//DTD SVG 1.1//EN" "http://www.w3.org/Graphics/SVG/1.1/DTD/svg11.dtd"><svg t="1715221627228" class="icon" viewBox="0 0 1024 1024" version="1.1" xmlns="http://www.w3.org/2000/svg" p-id="3760" xmlns:xlink="http://www.w3.org/1999/xlink" width="200" height="200"><path d="M726.016 495.616c-17.92 0-34.816 4.608-50.176 13.312-29.184 15.872-46.592 44.032-46.592 75.264V727.04c0 14.848-8.704 28.672-23.552 36.864-8.704 4.608-18.432 7.168-28.16 7.168-28.16 0-51.2-19.456-51.2-44.032 0-7.68 2.048-14.336 5.632-20.48 5.632-9.728 16.384-17.408 30.72-21.504l0.512-0.512c0.512-0.512 1.024-0.512 1.536-0.512h0.512c12.288 0 22.528-9.728 22.528-22.528 0-12.8-9.728-22.528-22.528-22.528-3.584 0-8.704 0.512-15.872 2.56-23.552 6.656-43.52 21.504-55.296 40.96-7.68 13.312-12.288 28.672-12.288 43.52 0 48.64 43.52 88.576 96.768 88.576 17.92 0 35.328-4.608 50.176-13.312 29.184-15.872 46.592-44.032 46.592-75.264V583.68c0-14.848 8.704-28.672 23.552-36.864 8.704-4.608 18.432-7.168 28.16-7.168 28.16 0 51.2 19.456 51.2 44.032 0 7.68-2.048 14.336-5.632 20.48-5.632 9.728-16.384 17.408-30.208 21.504l-1.024 0.512c-0.512 0.512-1.024 0.512-1.536 0.512-12.8 0-22.528 9.728-22.528 22.528v0.512c0.512 11.776 10.752 21.504 22.528 21.504 5.632 0 10.752-0.512 15.872-2.56 23.552-6.656 43.52-21.504 55.296-40.96 7.68-13.312 12.288-28.672 12.288-43.52-1.024-48.64-44.032-88.576-97.28-88.576z" p-id="3761"></path><path d="M480.768 805.376H244.736v-4.608c0.512-142.336 115.2-258.56 257.536-259.584 3.584 0 6.656-1.024 9.216-2.048 95.744-5.12 172.544-84.48 172.544-181.76 0-100.864-81.408-182.272-182.272-182.272-100.864 0-182.272 81.408-182.272 182.272 0 66.56 35.328 124.416 88.576 156.16-119.296 38.912-206.336 152.064-206.336 285.184v50.176h279.04v-1.024c11.776 0 21.504-9.216 21.504-21.504-0.512-11.264-9.728-20.992-21.504-20.992zM362.496 357.376c0-77.312 62.464-140.288 139.776-140.288 77.312 0 140.288 62.464 140.288 140.288 0 76.8-61.952 139.264-139.264 139.776-77.824 0-140.8-62.464-140.8-139.776z" p-id="3762"></path></svg>