<svg xmlns="http://www.w3.org/2000/svg" xmlns:xlink="http://www.w3.org/1999/xlink" version="1.1" width="24" height="24" viewBox="0 0 24 24"><defs><clipPath id="master_svg0_85_386"><rect x="0" y="0" width="24" height="24" rx="0"/></clipPath></defs><g clip-path="url(#master_svg0_85_386)"><g><path d="M7.647032719726562,18.313308093261718L6.3818227197265625,18.313308093261718C5.320637719726562,18.313308093261718,4.4574127197265625,17.50030809326172,4.4574127197265625,16.501208093261717L4.4574127197265625,6.2682380932617185C4.4574127197265625,5.269169093261719,5.320637719726562,4.456108093261719,6.3818227197265625,4.456108093261719L16.389412719726565,4.456108093261719C17.45051271972656,4.456108093261719,18.314312719726562,5.269169093261719,18.314312719726562,6.2682380932617185L18.314312719726562,8.497678093261719C18.314312719726562,8.816838093261719,18.05601271972656,9.07506809326172,17.73691271972656,9.07506809326172C17.417712719726563,9.07506809326172,17.159512719726564,8.816838093261719,17.159512719726564,8.497678093261719L17.159512719726564,6.2682380932617185C17.159512719726564,5.905648093261719,16.813912719726563,5.6108880932617184,16.389412719726565,5.6108880932617184L6.3818227197265625,5.6108880932617184C5.957282719726562,5.6108880932617184,5.612192719726562,5.905818093261718,5.612192719726562,6.2682380932617185L5.612192719726562,16.501208093261717C5.612192719726562,16.86310809326172,5.957282719726562,17.15850809326172,6.3818227197265625,17.15850809326172L7.647032719726562,17.15850809326172C7.966202719726562,17.15850809326172,8.224422719726562,17.416808093261718,8.224422719726562,17.73590809326172C8.224422719726562,18.05510809326172,7.966202719726562,18.313308093261718,7.647032719726562,18.313308093261718Z" /></g><g><path d="M8.366149522460937,13.867579865722657C8.106239522460937,13.780209865722657,7.9301605224609375,13.536969865722657,7.9301605224609375,13.262409865722656C7.9301605224609375,12.987859865722656,8.106071522460937,12.744109865722656,8.366149522460937,12.657919865722656L13.518730522460938,10.940392865722655C13.656950522460939,10.894268865722657,13.806400522460937,10.894268865722657,13.944620522460937,10.940392865722655L19.09716052246094,12.657919865722656C19.357160522460937,12.744279865722657,19.53316052246094,12.988029865722655,19.53316052246094,13.262409865722656C19.53316052246094,13.536799865722656,19.357260522460937,13.780209865722657,19.09716052246094,13.867579865722657L13.944960522460939,15.586959865722656C13.806570522460937,15.633079865722657,13.656950522460939,15.633079865722657,13.518560522460938,15.586959865722656L8.366149522460937,13.867579865722657ZM10.679750522460937,13.294229865722656L13.625290522460936,14.275789865722656C13.694300522460939,14.298859865722656,13.769050522460937,14.298859865722656,13.838230522460938,14.275789865722656L16.783770522460937,13.294229865722656C16.814400522460936,13.283959865722656,16.814400522460936,13.240529865722657,16.783770522460937,13.230429865722655L13.838230522460938,12.248359865722657C13.769120522460938,12.225299865722656,13.694400522460938,12.225299865722656,13.625290522460936,12.248359865722657L10.679750522460937,13.230429865722655C10.649120522460937,13.240699865722657,10.649120522460937,13.284129865722656,10.679750522460937,13.294229865722656Z" /></g><g><path d="M13.731700341796875,19.53242023925781C12.424580341796876,19.53242023925781,11.106680341796874,19.148120239257814,9.815210341796876,18.389420239257813C9.620270341796875,18.273920239257812,9.500250341796875,18.065520239257815,9.500250341796875,17.839120239257813L9.500250341796875,13.912020239257814C9.500250341796875,13.563570239257812,9.774810341796876,13.270500239257814,10.123260341796875,13.262750239257812C10.481810341796875,13.254670239257813,10.775560341796876,13.543540239257812,10.775560341796876,13.900240239257812L10.775560341796876,17.364080239257813C10.775560341796876,17.42737023925781,10.811250341796875,17.485110239257814,10.867470341796874,17.514070239257812C12.783470341796875,18.501020239257812,14.679430341796875,18.501020239257812,16.595430341796877,17.514070239257812C16.651650341796874,17.485110239257814,16.687340341796876,17.42737023925781,16.687340341796876,17.364080239257813L16.687340341796876,13.912020239257814C16.687340341796876,13.563570239257812,16.961890341796874,13.270500239257814,17.310350341796877,13.262750239257812C17.668900341796874,13.254670239257813,17.962600341796875,13.543540239257812,17.962600341796875,13.900240239257812L17.962600341796875,17.839290239257814C17.962600341796875,18.065720239257814,17.842790341796874,18.27412023925781,17.647690341796874,18.389620239257813C16.356220341796877,19.147920239257815,15.038990341796875,19.53242023925781,13.731700341796875,19.53242023925781ZM11.963170341796875,9.074900239257813L8.498991341796875,9.074900239257813C8.179827341796875,9.074900239257813,7.921600341796875,8.816675239257812,7.921600341796875,8.497511239257813C7.921600341796875,8.178347239257812,8.179827341796875,7.9201202392578125,8.498991341796875,7.9201202392578125L11.963170341796875,7.9201202392578125C12.282330341796875,7.9201202392578125,12.540560341796876,8.178347239257812,12.540560341796876,8.497511239257813C12.540560341796876,8.816675239257812,12.282330341796875,9.074900239257813,11.963170341796875,9.074900239257813Z" /></g></g></svg>